<svg id="Layer_1" data-name="Layer 1" xmlns="http://www.w3.org/2000/svg" viewBox="0 0 175 100"><defs><style>.cls-1{fill:#fff;}.cls-2{fill:#4449a6;}</style></defs><rect class="cls-1" width="99.58" height="100" rx="7.98"/><rect class="cls-1" x="108.61" width="66.39" height="100" rx="7.98"/><path class="cls-2" d="M14.94,72.58v-5h5v-35h-5v-5H44.81v5h5v15h-5v5H29.88v15h5v5Zm24.89-25v-15H29.88v15Z"/><path class="cls-2" d="M54.77,72.58v-5h10v-20h-10v-5H74.69v25h10v5Zm10-35v-10h10v10Z"/><path class="cls-2" d="M136.83,72.58v-25h5v-5h5v-10h-10v5h-10v-10h29.87v20h-5v5h-5v20Z"/></svg>